# File generated by ImageToStl.com - Free Image and 3D model conversion tools

o obj1
v 0.03163205 0.0243192 -0.02415211
v 0.02991964 0.02639745 -0.02475902
v 0.045 0.02639745 -0.02475902
v 0.02576296 0.03046769 -0.02541889
v 0.0230926 0.03253831 -0.02549997
v 0.045 0.0325 -0.0255
v 0.01009223 0.03860255 -0.02475902
v 0.0077841 0.03913333 -0.02462212
v 0 0.04435044 -0.02257913
v 0.00391179 0.03970778 -0.02446013
v 0 0.0399 -0.02440266
v 0.01881054 0.03518769 -0.02535796
v 0.01526907 0.03686279 -0.02512401
v 0.045 0.03860255 -0.02475902
v 0.02216725 0.03317564 -0.02549105
v 0.02821356 0.02821356 -0.02513715
v 0.045 0.02064956 -0.02257913
v 0.03414097 0.02064956 -0.02257913
v 0.03317564 0.02216725 -0.02331275
v 0.045 0.01151391 -0.01448565
v 0.03820262 0.01151391 -0.01448565
v 0.045 0.01559037 -0.01908702
v 0.03762216 0.01328844 -0.016768
v 0.03687031 0.01525091 -0.01878081
v 0.03672806 0.01559037 -0.01908702
v 0.03557187 0.01807351 -0.02102681
v 0.045 0.00865709 -0.00904243
v 0.045 0.00718592 -0.00307369
v 0.03924758 0.00718592 -0.00307369
v 0.03913333 0.0077841 -0.00627491
v 0.03894952 0.00865709 -0.00904243
v 0.03864731 0.00991944 -0.01184771
v 0.045 0.00865709 0.00904243
v 0.03913333 0.0077841 0.00627491
v 0.045 0.00718592 0.00307369
v 0.03924758 0.00718592 0.00307369
v 0.03928117 0.007 -1.272E-05
v 0.045 0.01151391 0.01448565
v 0.03864471 0.00992958 0.01186701
v 0.03894952 0.00865709 0.00904243
v 0.03672592 0.01559542 0.01909149
v 0.03686279 0.01526907 0.01879747
v 0.045 0.01559037 0.01908702
v 0.03762145 0.01329047 0.01677033
v 0.03820262 0.01151391 0.01448565
v 0.0355805 0.01805652 0.02101514
v 0.045 0.02064956 0.02257913
v 0.03414097 0.02064956 0.02257913
v 0.03317564 0.02216725 0.02331275
v 0.045 0.02639745 0.02475902
v 0.03164173 0.0243066 0.02414784
v 0.02314649 0.0325 0.0255
v 0.02578223 0.03045138 0.02541758
v 0.045 0.0325 0.0255
v 0.02821356 0.02821356 0.02513715
v 0.02991964 0.02639745 0.02475902
v 0.02216669 0.03317601 0.02549104
v 0.045 0.03860255 0.02475902
v 0.01880679 0.0351897 0.02535775
v 0 0.0399 0.02440266
v 0.00392538 0.03970644 0.02446052
v 0 0.04435044 0.02257913
v 0.0077841 0.03913333 0.02462212
v 0.01009223 0.03860255 0.02475902
v 0.045 0.04435044 -0.02257913
v 0 0.04940963 -0.01908702
v 0.045 0.04940963 -0.01908702
v 0 0.05348609 -0.01448565
v 0.045 0.05348609 -0.01448565
v 0 0.05634291 -0.00904243
v 0.045 0.05634291 -0.00904243
v 0 0.05781408 -0.00307369
v 0.045 0.05781408 -0.00307369
v 0 0.05781408 0.00307369
v 0.045 0.05781408 0.00307369
v 0 0.05634291 0.00904243
v 0.045 0.05634291 0.00904243
v 0 0.05348609 0.01448565
v 0.045 0.05348609 0.01448565
v 0 0.04940963 0.01908702
v 0.045 0.04940963 0.01908702
v 0.045 0.04435044 0.02257913
v 0.01526907 0.03686279 0.02512401
v 0.03317564 0.02216725 -0.038
v 0.01526907 0.03686279 0.038
v 0.0077841 0.03913333 0.038
v 0.02821356 0.02821356 0.038
v 0.02216725 0.03317564 0.038
v 0.03317564 0.02216725 0.038
v 0.03686279 0.01526907 0.038
v 0.03913333 0.0077841 0.038
v 0.0399 0 0.038
v 0.03913333 0.0077841 -0.038
v 0.0399 0 -0.038
v 0.03686279 0.01526907 -0.038
v 0.02821356 0.02821356 -0.038
v 0.02216725 0.03317564 -0.038
v 0.01526907 0.03686279 -0.038
v 0.0077841 0.03913333 -0.038
v -0.0077841 0.03913333 -0.038
v -0 0.0399 -0.02440266
v -0 0.0399 -0.038
v -0 0.0399 0.038
v -0 0.0399 0.02440266
v -0.0077841 0.03913333 0.038
v 0.03913333 -0.0077841 0.038
v 0.03913333 -0.0077841 -0.038
v 0.03686279 -0.01526907 0.038
v 0.03686279 -0.01526907 -0.038
v 0.03317564 -0.02216725 0.038
v 0.03317564 -0.02216725 -0.038
v 0.02821356 -0.02821356 0.038
v 0.02821356 -0.02821356 -0.038
v 0.02216725 -0.03317564 0.038
v 0.02216725 -0.03317564 -0.038
v 0.01526907 -0.03686279 0.038
v 0.01526907 -0.03686279 -0.038
v 0.0077841 -0.03913333 0.038
v 0.0077841 -0.03913333 -0.038
v 0 -0.0399 0.038
v 0 -0.0399 -0.038
v -0.0077841 -0.03913333 0.038
v -0.0077841 -0.03913333 -0.038
v -0.01526907 -0.03686279 0.038
v -0.01526907 -0.03686279 -0.038
v -0.02216725 -0.03317564 0.038
v -0.02216725 -0.03317564 -0.038
v -0.02821356 -0.02821356 0.038
v -0.02821356 -0.02821356 -0.038
v -0.03317564 -0.02216725 0.038
v -0.03317564 -0.02216725 -0.038
v -0.03686279 -0.01526907 0.038
v -0.03686279 -0.01526907 -0.038
v -0.03913333 -0.0077841 0.038
v -0.03913333 -0.0077841 -0.038
v -0.0399 0 0.038
v -0.0399 0 -0.038
v -0.03913333 0.0077841 0.038
v -0.03913333 0.0077841 -0.038
v -0.03686279 0.01526907 0.038
v -0.03686279 0.01526907 -0.038
v -0.03317564 0.02216725 0.038
v -0.03317564 0.02216725 -0.038
v -0.02821356 0.02821356 0.038
v -0.02821356 0.02821356 -0.038
v -0.02216725 0.03317564 0.038
v -0.02216725 0.03317564 -0.038
v -0.01526907 0.03686279 0.038
v -0.01526907 0.03686279 -0.038
v 0 0 0.038
v 0.0399 0 -0.038
v 0 0 -0.038
v 0.045 0.0045 -0.03
v 0.045 0.0605 -0.03
v 0.065 0.0045 -0.03
v 0.065 0.0605 -0.03
v 0.045 0.0045 0.03
v 0.065 0.0045 0.03
v 0.045 0.0605 0.03
v 0.065 0.0605 0.03
vn 0 -0.28032 -0.95991
vn -7E-05 -0.03922 -0.99923
vn 0.04246 0.41859 -0.90718
vn 0.01923 0.38931 -0.92091
vn 0.00504 0.37914 -0.92532
vn 0.00361 0.14581 -0.98931
vn 0.00021 0.12054 -0.99271
vn 0.02133 0.04496 -0.99876
vn 0.01166 0.08534 -0.99628
vn -0 -0.12054 -0.99271
vn 0.02502 -0.1812 -0.98313
vn 0.00801 -0.11544 -0.99328
vn -0 -0.35461 -0.93502
vn 0.03748 -0.41547 -0.90883
vn 0.01281 -0.35536 -0.93464
vn -0 -0.74851 -0.66312
vn 0.04899 -0.78243 -0.6208
vn 0.00355 -0.71534 -0.69877
vn -0 -0.6698 -0.74254
vn -0 -0.56806 -0.82298
vn 0.03443 -0.60524 -0.7953
vn -0 -0.51613 -0.85651
vn 0 -0.97094 -0.23932
vn 0.05851 -0.98092 -0.18538
vn -0 -0.95368 -0.30083
vn -0 -0.88546 -0.46472
vn 0.05576 -0.90824 -0.41471
vn -0 -0.85581 -0.51729
vn 0.03157 -0.97046 0.2392
vn 0 -0.98299 0.18368
vn -0 -1 -0
vn 0.06487 -0.99605 0.06071
vn -0 -0.99816 -0.06063
vn 0.02924 -0.88508 0.46452
vn 0 -0.91175 0.41075
vn 0 -0.95368 0.30083
vn -1E-05 -0.66935 0.74295
vn 0.00335 -0.71499 0.69912
vn 0.0251 -0.74827 0.66291
vn 0 -0.78942 0.61385
vn 0 -0.85559 0.51765
vn 5E-05 -0.61581 0.7879
vn 0.01973 -0.56795 0.82282
vn 0 -0.51648 0.8563
vn 0 -0.4352 0.90033
vn 0.0125 -0.35458 0.93494
vn 0.01289 -0.35556 0.93456
vn 0 -0.0402 0.99919
vn 0.00807 -0.11569 0.99325
vn 0.00932 -0.12053 0.99267
vn 0 -0.20384 0.979
vn 0 -0.28057 0.95983
vn -0 0.01325 0.99991
vn 0.00318 0.12054 0.9927
vn 0.01165 0.08538 0.99628
vn 0.00506 0.37914 0.92532
vn 0.01926 0.38935 0.92089
vn 0.04246 0.41859 0.90718
vn 0 0.20533 -0.97869
vn 0 0.35461 -0.93502
vn 0 0.56806 -0.82298
vn 0 0.74851 -0.66312
vn 0 0.88546 -0.46472
vn 0 0.97094 -0.23932
vn 0 1 0
vn 0 0.97094 0.23932
vn 0 0.88546 0.46472
vn 0 0.74851 0.66312
vn 0 0.56806 0.82298
vn 0 0.35461 0.93502
vn 0 0.20533 0.97869
vn 0.00361 0.14584 0.9893
vn 0.81257 0.58286 0
vn 0.31856 0.9479 -0
vn 0.29026 0.95687 0.01224
vn 0.67722 0.73578 0
vn 0.63432 0.77292 0.0149
vn 0.61378 0.78946 0.00541
vn 0.5679 0.8231 -0
vn 0.4714 0.88192 1E-05
vn 0.51296 0.85789 0.03001
vn 0.42753 0.904 0
vn 0.72884 0.68468 -0
vn 0.77295 0.63434 0.01259
vn 0.77358 0.63358 0.01219
vn 0.90683 0.42149 0.00071
vn 0.87741 0.47958 0.01246
vn 0.88189 0.47138 0.00881
vn 0.84378 0.53669 0
vn 0.81269 0.5827 0
vn 0.96471 0.26328 0.00358
vn 0.95403 0.29955 0.00975
vn 0.95692 0.29028 0.00714
vn 0.93372 0.35801 0
vn 0.92217 0.38678 0
vn 0.99387 0.11046 0.00416
vn 0.9905 0.13717 0.00972
vn 0.99518 0.09802 0
vn 0.97854 0.20604 0
vn 0.97289 0.23127 0.0008
vn 0.96474 0.26318 -0.00356
vn 0.97292 0.23115 -0.00079
vn 0.9905 0.13717 -0.00972
vn 0.99386 0.11059 -0.00419
vn 0.88192 0.4714 -0
vn 0.85048 0.52497 -0.03306
vn 0.87731 0.47976 -0.01254
vn 0.90676 0.42165 -0.0007
vn 0.92229 0.38649 0
vn 0.95694 0.29028 -0.0001
vn 0.94059 0.3389 -0.02091
vn 0.95404 0.29953 -0.00975
vn 0.77301 0.63439 -0
vn 0.73219 0.68008 -0.03722
vn 0.77346 0.63373 -0.01226
vn 0.63438 0.77299 -0.00755
vn 0.61304 0.78974 -0.02208
vn 0.67699 0.73599 -0
vn 0.47134 0.88182 -0.0152
vn 0.51413 0.85772 -0
vn 0.56722 0.82356 -0
vn 0.29026 0.95687 -0.01224
vn 0.42758 0.90398 -0
vn -0.09802 0.99518 0
vn 0.04908 0.99879 -0
vn 0.09801 0.99508 -0.01419
vn 0.14674 0.98917 -0
vn 0.22411 0.97456 -0
vn 0.14691 0.98915 0
vn 0.09801 0.99508 0.01419
vn 0.04925 0.99879 0
vn 0.99612 0.08806 0
vn 0.99518 -0.09802 0
vn 0.95694 -0.29028 0
vn 0.88192 -0.4714 0
vn 0.77301 -0.63439 0
vn 0.63439 -0.77301 0
vn 0.4714 -0.88192 0
vn 0.29028 -0.95694 0
vn 0.09802 -0.99518 0
vn -0.09802 -0.99518 0
vn -0.29028 -0.95694 0
vn -0.4714 -0.88192 0
vn -0.63439 -0.77301 0
vn -0.77301 -0.63439 0
vn -0.88192 -0.4714 0
vn -0.95694 -0.29028 0
vn -0.99518 -0.09802 0
vn -0.99518 0.09802 0
vn -0.95694 0.29028 0
vn -0.88192 0.4714 0
vn -0.77301 0.63439 0
vn -0.63439 0.77301 0
vn -0.4714 0.88192 0
vn -0.29028 0.95694 0
vn 0 0 1
vn 0 0 -1
vn -1 0 0
vn 1 0 0
f 1//1 2//1 3//1
f 4//2 5//2 6//2
f 7//3 8//3 9//3
f 9//4 8//4 10//4
f 9//5 10//5 11//5
f 12//6 13//6 14//6
f 6//7 5//7 14//7
f 14//8 5//8 15//8
f 14//9 15//9 12//9
f 3//10 2//10 6//10
f 6//11 2//11 16//11
f 6//12 16//12 4//12
f 17//13 18//13 3//13
f 3//14 18//14 19//14
f 3//15 19//15 1//15
f 20//16 21//16 22//16
f 22//17 21//17 23//17
f 23//18 24//18 22//18
f 22//19 24//19 25//19
f 22//20 25//20 17//20
f 17//21 25//21 26//21
f 17//22 26//22 18//22
f 27//23 28//23 29//23
f 29//24 30//24 27//24
f 27//25 30//25 31//25
f 27//26 31//26 20//26
f 20//27 31//27 32//27
f 20//28 32//28 21//28
f 33//29 34//29 35//29
f 35//30 34//30 36//30
f 35//31 36//31 28//31
f 28//32 36//32 37//32
f 28//33 37//33 29//33
f 38//34 39//34 33//34
f 33//35 39//35 40//35
f 33//36 40//36 34//36
f 41//37 42//37 43//37
f 43//38 42//38 44//38
f 43//39 44//39 38//39
f 38//40 44//40 45//40
f 38//41 45//41 39//41
f 41//42 43//42 46//42
f 46//43 43//43 47//43
f 46//44 47//44 48//44
f 48//45 47//45 49//45
f 49//46 47//46 50//46
f 49//47 50//47 51//47
f 52//48 53//48 54//48
f 54//49 53//49 55//49
f 54//50 55//50 50//50
f 50//51 55//51 56//51
f 50//52 56//52 51//52
f 52//53 54//53 57//53
f 57//54 54//54 58//54
f 57//55 58//55 59//55
f 60//56 61//56 62//56
f 62//57 61//57 63//57
f 62//58 63//58 64//58
f 13//59 7//59 14//59
f 14//60 7//60 9//60
f 14//60 9//60 65//60
f 65//61 9//61 66//61
f 65//61 66//61 67//61
f 67//62 66//62 68//62
f 67//62 68//62 69//62
f 69//63 68//63 70//63
f 69//63 70//63 71//63
f 71//64 70//64 72//64
f 71//64 72//64 73//64
f 73//65 72//65 74//65
f 73//65 74//65 75//65
f 75//66 74//66 76//66
f 75//66 76//66 77//66
f 77//67 76//67 78//67
f 77//67 78//67 79//67
f 79//68 78//68 80//68
f 79//68 80//68 81//68
f 81//69 80//69 62//69
f 81//69 62//69 82//69
f 82//70 62//70 64//70
f 82//70 64//70 58//70
f 58//71 64//71 83//71
f 58//72 83//72 59//72
f 1//73 19//73 84//73
f 83//74 64//74 85//74
f 85//75 64//75 86//75
f 87//76 55//76 53//76
f 87//77 53//77 88//77
f 53//78 52//78 88//78
f 88//79 52//79 57//79
f 88//80 57//80 85//80
f 85//81 57//81 59//81
f 85//82 59//82 83//82
f 55//83 87//83 56//83
f 56//84 87//84 89//84
f 56//85 89//85 51//85
f 41//86 46//86 90//86
f 90//87 46//87 48//87
f 90//88 48//88 89//88
f 89//89 48//89 49//89
f 89//90 49//90 51//90
f 39//91 45//91 91//91
f 91//92 45//92 44//92
f 91//93 44//93 90//93
f 90//94 44//94 42//94
f 90//95 42//95 41//95
f 37//96 36//96 92//96
f 92//97 36//97 34//97
f 92//98 34//98 91//98
f 91//99 34//99 40//99
f 91//100 40//100 39//100
f 21//101 32//101 93//101
f 32//102 31//102 93//102
f 93//99 31//99 30//99
f 93//98 30//98 94//98
f 94//103 30//103 29//103
f 94//104 29//104 37//104
f 84//105 19//105 95//105
f 95//106 19//106 18//106
f 95//107 18//107 26//107
f 26//108 25//108 95//108
f 95//109 25//109 24//109
f 95//110 24//110 93//110
f 93//111 24//111 23//111
f 93//112 23//112 21//112
f 96//113 16//113 84//113
f 84//114 16//114 2//114
f 84//115 2//115 1//115
f 97//116 5//116 96//116
f 96//117 5//117 4//117
f 96//118 4//118 16//118
f 98//119 12//119 97//119
f 97//120 12//120 15//120
f 97//121 15//121 5//121
f 99//122 7//122 98//122
f 98//74 7//74 13//74
f 98//123 13//123 12//123
f 100//124 101//124 102//124
f 102//125 101//125 10//125
f 102//126 10//126 99//126
f 99//127 10//127 8//127
f 99//128 8//128 7//128
f 64//128 63//128 86//128
f 86//129 63//129 61//129
f 86//130 61//130 103//130
f 103//131 61//131 104//131
f 103//124 104//124 105//124
f 37//132 92//132 94//132
f 94//133 92//133 106//133
f 94//133 106//133 107//133
f 107//134 106//134 108//134
f 107//134 108//134 109//134
f 109//135 108//135 110//135
f 109//135 110//135 111//135
f 111//136 110//136 112//136
f 111//136 112//136 113//136
f 113//137 112//137 114//137
f 113//137 114//137 115//137
f 115//138 114//138 116//138
f 115//138 116//138 117//138
f 117//139 116//139 118//139
f 117//139 118//139 119//139
f 119//140 118//140 120//140
f 119//140 120//140 121//140
f 121//141 120//141 122//141
f 121//141 122//141 123//141
f 123//142 122//142 124//142
f 123//142 124//142 125//142
f 125//143 124//143 126//143
f 125//143 126//143 127//143
f 127//144 126//144 128//144
f 127//144 128//144 129//144
f 129//145 128//145 130//145
f 129//145 130//145 131//145
f 131//146 130//146 132//146
f 131//146 132//146 133//146
f 133//147 132//147 134//147
f 133//147 134//147 135//147
f 135//148 134//148 136//148
f 135//148 136//148 137//148
f 137//149 136//149 138//149
f 137//149 138//149 139//149
f 139//150 138//150 140//150
f 139//150 140//150 141//150
f 141//151 140//151 142//151
f 141//151 142//151 143//151
f 143//152 142//152 144//152
f 143//152 144//152 145//152
f 145//153 144//153 146//153
f 145//153 146//153 147//153
f 147//154 146//154 148//154
f 147//154 148//154 149//154
f 149//155 148//155 105//155
f 149//155 105//155 100//155
f 100//124 105//124 104//124
f 100//124 104//124 101//124
f 92//156 91//156 150//156
f 92//156 150//156 106//156
f 112//156 110//156 150//156
f 150//156 110//156 108//156
f 150//156 108//156 106//156
f 118//156 116//156 150//156
f 150//156 116//156 114//156
f 150//156 114//156 112//156
f 124//156 122//156 150//156
f 150//156 122//156 120//156
f 150//156 120//156 118//156
f 130//156 128//156 150//156
f 150//156 128//156 126//156
f 150//156 126//156 124//156
f 136//156 134//156 150//156
f 150//156 134//156 132//156
f 150//156 132//156 130//156
f 142//156 140//156 150//156
f 150//156 140//156 138//156
f 150//156 138//156 136//156
f 148//156 146//156 150//156
f 150//156 146//156 144//156
f 150//156 144//156 142//156
f 86//156 103//156 150//156
f 150//156 103//156 105//156
f 150//156 105//156 148//156
f 87//156 88//156 150//156
f 150//156 88//156 85//156
f 150//156 85//156 86//156
f 91//156 90//156 150//156
f 150//156 90//156 89//156
f 150//156 89//156 87//156
f 151//157 107//157 152//157
f 151//157 152//157 93//157
f 96//157 84//157 152//157
f 152//157 84//157 95//157
f 152//157 95//157 93//157
f 99//157 98//157 152//157
f 152//157 98//157 97//157
f 152//157 97//157 96//157
f 149//157 100//157 152//157
f 152//157 100//157 102//157
f 152//157 102//157 99//157
f 143//157 145//157 152//157
f 152//157 145//157 147//157
f 152//157 147//157 149//157
f 137//157 139//157 152//157
f 152//157 139//157 141//157
f 152//157 141//157 143//157
f 131//157 133//157 152//157
f 152//157 133//157 135//157
f 152//157 135//157 137//157
f 125//157 127//157 152//157
f 152//157 127//157 129//157
f 152//157 129//157 131//157
f 119//157 121//157 152//157
f 152//157 121//157 123//157
f 152//157 123//157 125//157
f 113//157 115//157 152//157
f 152//157 115//157 117//157
f 152//157 117//157 119//157
f 107//157 109//157 152//157
f 152//157 109//157 111//157
f 152//157 111//157 113//157
f 11//158 60//158 9//158
f 9//158 60//158 62//158
f 9//158 62//158 80//158
f 68//158 76//158 70//158
f 70//158 76//158 74//158
f 70//158 74//158 72//158
f 80//158 78//158 9//158
f 9//158 78//158 76//158
f 9//158 76//158 66//158
f 66//158 76//158 68//158
f 153//157 154//157 155//157
f 155//157 154//157 156//157
f 157//31 153//31 158//31
f 158//31 153//31 155//31
f 159//156 157//156 160//156
f 160//156 157//156 158//156
f 154//65 159//65 156//65
f 156//65 159//65 160//65
f 77//158 79//158 159//158
f 159//158 79//158 81//158
f 159//158 81//158 82//158
f 50//158 157//158 54//158
f 54//158 157//158 159//158
f 54//158 159//158 58//158
f 58//158 159//158 82//158
f 65//158 67//158 154//158
f 154//158 67//158 69//158
f 50//158 47//158 157//158
f 157//158 47//158 43//158
f 157//158 43//158 38//158
f 69//158 71//158 154//158
f 154//158 71//158 73//158
f 154//158 73//158 159//158
f 159//158 73//158 75//158
f 159//158 75//158 77//158
f 27//158 20//158 153//158
f 153//158 20//158 22//158
f 153//158 22//158 17//158
f 17//158 3//158 153//158
f 153//158 3//158 6//158
f 153//158 6//158 154//158
f 154//158 6//158 14//158
f 154//158 14//158 65//158
f 38//158 33//158 157//158
f 157//158 33//158 35//158
f 157//158 35//158 153//158
f 153//158 35//158 28//158
f 153//158 28//158 27//158
f 160//159 158//159 156//159
f 156//159 158//159 155//159
# Vertices: 160, normals: 159, texture coordinates: 0, faces: 310

