# File generated by ImageToStl.com - Free Image and 3D model conversion tools

o obj1
v -0.02158649 -0.06237005 0
v -0.00939278 -0.06532822 0
v 0.00314041 -0.06592525 0
v 0.03239984 -0.0575 0
v -0.03239984 -0.0575 0
v 0.02741739 -0.06003571 0
v 0.01556009 -0.06413956 0
v -0.03239984 0.0575 0
v 0.03239984 0.0575 0
v 0.02741739 0.06003571 0
v 0.00314041 0.06592525 0
v -0.00939278 0.06532822 0
v -0.02158649 0.06237005 0
v 0.01556009 0.06413956 0
v -0.055 0.03648287 0
v -0.0479 0.039 0
v -0.0518795 0.04079849 0
v -0.0479 0.04540474 0
v -0.055 -0.013 0
v -0.0479 -0.013 0
v 0.0479 0.039 0
v -0.0479 -0.039 0
v 0.0479 -0.039 0
v 0.066 -0 0
v 0.0648073 0.01249058 0
v 0.06127228 0.02452972 0
v 0.05552273 0.03568229 0
v 0.0479 0.04540474 0
v 0.0479 -0.04540474 0
v 0.05552273 -0.03568229 0
v 0.06127228 -0.02452972 0
v 0.0648073 -0.01249058 0
v 0.02741739 -0.06003571 -0.005
v 0.03828376 -0.05376201 0
v 0.03828376 -0.05376201 -0.005
v 0.04776645 -0.04554521 -0.005
v 0.01556009 -0.06413956 -0.005
v 0.00314041 -0.06592525 -0.005
v -0.00939278 -0.06532822 -0.005
v -0.02158649 -0.06237005 -0.005
v -0.033 -0.05715768 -0.005
v -0.05866314 0.03024295 0
v -0.06332654 0.01859435 -0.005
v -0.06332654 0.01859435 0
v -0.06570115 0.0062737 -0.005
v -0.06570115 0.0062737 0
v -0.06570115 -0.0062737 -0.005
v -0.06570115 -0.0062737 0
v -0.06332654 -0.01859435 -0.005
v -0.06332654 -0.01859435 0
v -0.05866314 -0.03024295 -0.005
v -0.05866314 -0.03024295 0
v -0.0518795 -0.04079849 -0.005
v -0.0518795 -0.04079849 0
v -0.04322081 -0.04987947 -0.005
v -0.04322081 -0.04987947 0
v -0.033 -0.05715768 0
v -0.0518795 0.04079849 -0.005
v -0.05866314 0.03024295 -0.005
v -0.04322081 0.04987947 -0.005
v -0.04322081 0.04987947 0
v -0.033 0.05715768 0
v -0.033 0.05715768 -0.005
v -0.02158649 0.06237005 -0.005
v -0.00939278 0.06532822 -0.005
v 0.00314041 0.06592525 -0.005
v 0.01556009 0.06413956 -0.005
v 0.02741739 0.06003571 -0.005
v 0.03828376 0.05376201 -0.005
v 0.03828376 0.05376201 0
v 0.04776645 0.04554521 0
v 0.04776645 0.04554521 -0.005
v 0.05552273 0.03568229 -0.005
v 0.06127228 0.02452972 -0.005
v 0.0648073 0.01249058 -0.005
v 0.066 0 0
v 0.066 0 -0.005
v 0.0648073 -0.01249058 -0.005
v 0.06127228 -0.02452972 -0.005
v 0.05552273 -0.03568229 -0.005
v 0.04776645 -0.04554521 0
v 0 0 -0.005
v 0.0479 0.0575 0
v 0.0479 0.0575 0.065
v 0.0479 0.0575 0
v 0.03239984 0.0575 0
v 0.02986516 0.0575 0.10244973
v 0.03744973 0.0575 0.09486516
v 0.04669905 0.0575 0.07565875
v 0.04315641 0.0575 0.08578303
v -0.03239984 0.0575 0
v -0.0479 0.0575 0
v -0.02986516 0.0575 0.10244973
v -0.0479 0.0575 0.065
v -0.01065875 0.0575 0.11169904
v 0 0.0575 0.1129
v -0.04669905 0.0575 0.07565875
v -0.04315641 0.0575 0.08578303
v -0.03744973 0.0575 0.09486516
v -0.02078303 0.0575 0.10815641
v 0.01065875 0.0575 0.11169904
v 0.02078303 0.0575 0.10815641
v -0.0479 0.039 0
v -0.0479 0.039 0.065
v -0.0479 0.04540474 0
v -0.02078303 0.039 0.10815641
v -0.02986516 0.039 0.10244973
v 0.0479 0.039 0.065
v -0.03744973 0.039 0.09486516
v -0.04315641 0.039 0.08578303
v 0.0479 0.039 0
v -0.04669905 0.039 0.07565875
v 0.03744973 0.039 0.09486516
v 0.02986516 0.039 0.10244973
v 0.02078303 0.039 0.10815641
v 0.04669905 0.039 0.07565875
v 0.04315641 0.039 0.08578303
v -0.01065875 0.039 0.11169904
v 0 0.039 0.1129
v 0.01065875 0.039 0.11169904
v -0.0479 0.0575 0
v -0.1094 -0.0465 0
v -0.1094 -0.013 0
v -0.0479 -0.0465 0
v -0.097 -0.013 0
v -0.097 0.0857 0
v -0.055 0.0857 0
v -0.0479 -0.0575 0
v 0.0479 -0.039 0.065
v -0.0479 -0.039 0.053
v -0.0479 -0.039 0.065
v 0.04669905 -0.039 0.07565875
v 0.04315641 -0.039 0.08578303
v -0.04669905 -0.039 0.07565875
v -0.04315641 -0.039 0.08578303
v -0.03744973 -0.039 0.09486516
v -0.02986516 -0.039 0.10244973
v -0.02078303 -0.039 0.10815641
v -0.01065875 -0.039 0.11169904
v 0 -0.039 0.1129
v 0.01065875 -0.039 0.11169904
v 0.02078303 -0.039 0.10815641
v 0.02986516 -0.039 0.10244973
v 0.03744973 -0.039 0.09486516
v -0.0479 -0.0465 0
v -0.0479 -0.0575 0
v -0.0479 -0.0465 0.053
v -0.0479 -0.0575 0.065
v -0.04315641 -0.0575 0.08578303
v -0.04669905 -0.0575 0.07565875
v 0.0479 -0.0575 0.065
v 0.04669905 -0.0575 0.07565875
v 0.04315641 -0.0575 0.08578303
v 0.02986516 -0.0575 0.10244973
v 0.02078303 -0.0575 0.10815641
v 0.01065875 -0.0575 0.11169904
v -0 -0.0575 0.1129
v -0.01065875 -0.0575 0.11169904
v -0.02078303 -0.0575 0.10815641
v -0.02986516 -0.0575 0.10244973
v -0.03744973 -0.0575 0.09486516
v 0.0479 -0.0575 0
v 0.03744973 -0.0575 0.09486516
v -0 -0.0575 0.1129
v -0 -0.039 0.1129
v -0 -0.039 0.1129
v -0 -0.0575 0.1129
v 0 0.039 0.1129
v 0 0.0575 0.1129
v -0.0479 -0.013 0.053
v -0.055 -0.013 0.053
v -0.055 0.0857 0.053
v -0.097 0.0857 0.053
v -0.097 -0.013 0.053
v -0.1094 -0.013 0.053
v -0.1094 -0.0465 0.053
vn 0 0 1
vn 0.53323 -0.83934 -0.10569
vn 0.5 -0.86603 0
vn 0.65486 -0.75575 0
vn 0.45357 -0.89122 0
vn 0.32707 -0.945 0
vn 0.14232 -0.98982 0
vn -0.04758 -0.99887 0
vn -0.23576 -0.97181 0
vn -0.41065 -0.91179 0
vn -0.41538 -0.90956 -0.01241
vn -0.92837 0.37166 0
vn -0.98193 0.18925 0
vn -1 0 -0
vn -0.98193 -0.18925 -0
vn -0.92837 -0.37166 -0
vn -0.84125 -0.54064 -0
vn -0.72373 -0.69008 -0
vn -0.58006 -0.81458 -0
vn -0.49546 -0.86863 -0
vn -0.85799 0.50368 -0.10073
vn -0.84125 0.54064 0
vn -0.81035 0.58594 0
vn -0.75671 0.65375 0
vn -0.72245 0.68885 -0.05961
vn -0.69114 0.72272 0
vn -0.58006 0.81458 0
vn -0.49546 0.86863 0
vn -0.41538 0.90956 -0.01241
vn -0.41065 0.91179 0
vn -0.23576 0.97181 0
vn -0.04758 0.99887 0
vn 0.14232 0.98982 -0
vn 0.32707 0.945 -0
vn 0.45357 0.89122 -0
vn 0.49913 0.86452 -0.05894
vn 0.53623 0.84407 0
vn 0.65486 0.75575 -0
vn 0.72475 0.68902 -0
vn 0.78605 0.61815 -0.00363
vn 0.78696 0.617 0
vn 0.88884 0.45823 -0
vn 0.95949 0.28173 -0
vn 0.99547 0.09506 -0
vn 0.99547 -0.09506 0
vn 0.95949 -0.28173 0
vn 0.88884 -0.45823 0
vn 0.78696 -0.617 0
vn 0.78605 -0.61815 -0.00363
vn 0.72475 -0.68902 0
vn 0 -0 -1
vn 0 1 0
vn 0 -1 -0
vn 1 0 -0
vn -0.99371 0 0.11196
vn -0.94388 0 0.33028
vn -0.84672 0 0.53203
vn -0.70711 0 0.70711
vn -0.53203 0 0.84672
vn -0.33028 0 0.94388
vn -0.11196 0 0.99371
vn -0.11196 0 0.99371
vn 0.99371 -0 0.11196
vn 0.94388 -0 0.33028
vn 0.84672 -0 0.53203
vn 0.70711 -0 0.70711
vn 0.53203 -0 0.84672
vn 0.33028 -0 0.94388
vn 0.11196 -0 0.99371
f 1//1 2//1 3//1
f 4//1 5//1 6//1
f 6//1 5//1 1//1
f 6//1 1//1 7//1
f 7//1 1//1 3//1
f 8//1 9//1 10//1
f 11//1 12//1 13//1
f 8//1 10//1 13//1
f 13//1 10//1 14//1
f 13//1 14//1 11//1
f 15//1 16//1 17//1
f 17//1 16//1 18//1
f 15//1 19//1 16//1
f 16//1 19//1 20//1
f 16//1 20//1 21//1
f 20//1 22//1 23//1
f 24//1 25//1 20//1
f 20//1 25//1 26//1
f 20//1 26//1 21//1
f 21//1 26//1 27//1
f 21//1 27//1 28//1
f 29//1 30//1 23//1
f 23//1 30//1 31//1
f 23//1 31//1 20//1
f 20//1 31//1 32//1
f 20//1 32//1 24//1
f 4//2 33//2 34//2
f 34//3 33//3 35//3
f 34//4 35//4 36//4
f 4//5 6//5 33//5
f 33//6 6//6 7//6
f 33//6 7//6 37//6
f 37//7 7//7 3//7
f 37//7 3//7 38//7
f 38//8 3//8 2//8
f 38//8 2//8 39//8
f 39//9 2//9 1//9
f 39//9 1//9 40//9
f 40//10 1//10 5//10
f 40//11 5//11 41//11
f 42//12 43//12 44//12
f 44//13 43//13 45//13
f 44//13 45//13 46//13
f 46//14 45//14 47//14
f 46//14 47//14 48//14
f 48//15 47//15 49//15
f 48//15 49//15 50//15
f 50//16 49//16 51//16
f 50//16 51//16 52//16
f 52//17 51//17 53//17
f 52//17 53//17 54//17
f 54//18 53//18 55//18
f 54//18 55//18 56//18
f 56//19 55//19 41//19
f 56//19 41//19 57//19
f 57//20 41//20 5//20
f 15//21 58//21 42//21
f 42//22 58//22 59//22
f 42//12 59//12 43//12
f 15//23 17//23 58//23
f 58//24 17//24 18//24
f 58//25 18//25 60//25
f 18//26 61//26 60//26
f 60//27 61//27 62//27
f 60//27 62//27 63//27
f 63//28 62//28 8//28
f 63//29 8//29 64//29
f 8//30 13//30 64//30
f 64//31 13//31 12//31
f 64//31 12//31 65//31
f 65//32 12//32 11//32
f 65//32 11//32 66//32
f 66//33 11//33 14//33
f 66//33 14//33 67//33
f 67//34 14//34 10//34
f 67//34 10//34 68//34
f 68//35 10//35 9//35
f 68//36 9//36 69//36
f 9//37 70//37 69//37
f 69//38 70//38 71//38
f 69//38 71//38 72//38
f 72//39 71//39 28//39
f 72//40 28//40 73//40
f 28//41 27//41 73//41
f 73//42 27//42 26//42
f 73//42 26//42 74//42
f 74//43 26//43 25//43
f 74//43 25//43 75//43
f 75//44 25//44 76//44
f 75//44 76//44 77//44
f 77//45 76//45 32//45
f 77//45 32//45 78//45
f 78//46 32//46 31//46
f 78//46 31//46 79//46
f 79//47 31//47 30//47
f 79//47 30//47 80//47
f 80//48 30//48 29//48
f 80//49 29//49 36//49
f 36//50 29//50 81//50
f 36//4 81//4 34//4
f 74//51 75//51 82//51
f 82//51 75//51 77//51
f 82//51 77//51 78//51
f 69//51 72//51 82//51
f 82//51 72//51 73//51
f 82//51 73//51 74//51
f 66//51 67//51 82//51
f 82//51 67//51 68//51
f 82//51 68//51 69//51
f 63//51 64//51 82//51
f 82//51 64//51 65//51
f 82//51 65//51 66//51
f 59//51 58//51 82//51
f 82//51 58//51 60//51
f 82//51 60//51 63//51
f 47//51 45//51 82//51
f 82//51 45//51 43//51
f 82//51 43//51 59//51
f 53//51 51//51 82//51
f 82//51 51//51 49//51
f 82//51 49//51 47//51
f 40//51 41//51 82//51
f 82//51 41//51 55//51
f 82//51 55//51 53//51
f 37//51 38//51 82//51
f 82//51 38//51 39//51
f 82//51 39//51 40//51
f 36//51 35//51 82//51
f 82//51 35//51 33//51
f 82//51 33//51 37//51
f 78//51 79//51 82//51
f 82//51 79//51 80//51
f 82//51 80//51 36//51
f 28//51 71//51 83//51
f 83//51 71//51 70//51
f 83//51 70//51 9//51
f 84//52 85//52 86//52
f 86//52 87//52 84//52
f 84//52 87//52 88//52
f 84//52 88//52 89//52
f 89//52 88//52 90//52
f 91//52 92//52 93//52
f 93//52 92//52 94//52
f 95//52 96//52 86//52
f 97//52 98//52 94//52
f 94//52 98//52 99//52
f 94//52 99//52 93//52
f 91//52 93//52 86//52
f 86//52 93//52 100//52
f 86//52 100//52 95//52
f 96//52 101//52 86//52
f 86//52 101//52 102//52
f 86//52 102//52 87//52
f 103//14 104//14 105//14
f 105//14 104//14 94//14
f 105//14 94//14 92//14
f 106//53 107//53 108//53
f 108//53 107//53 109//53
f 108//53 109//53 110//53
f 103//53 111//53 104//53
f 104//53 111//53 108//53
f 104//53 108//53 112//53
f 112//53 108//53 110//53
f 113//53 114//53 115//53
f 108//53 116//53 106//53
f 106//53 116//53 117//53
f 106//53 117//53 118//53
f 118//53 117//53 119//53
f 113//53 115//53 117//53
f 117//53 115//53 120//53
f 117//53 120//53 119//53
f 83//54 84//54 28//54
f 28//54 84//54 108//54
f 28//54 108//54 21//54
f 8//51 62//51 121//51
f 121//51 62//51 61//51
f 121//51 61//51 18//51
f 122//51 123//51 124//51
f 124//51 123//51 125//51
f 126//51 127//51 15//51
f 48//51 50//51 125//51
f 50//51 52//51 125//51
f 125//51 52//51 54//51
f 125//51 54//51 124//51
f 124//51 54//51 56//51
f 124//51 56//51 128//51
f 128//51 56//51 57//51
f 128//51 57//51 5//51
f 15//51 42//51 126//51
f 126//51 42//51 44//51
f 126//51 44//51 125//51
f 125//51 44//51 46//51
f 125//51 46//51 48//51
f 129//52 23//52 22//52
f 22//52 130//52 129//52
f 129//52 130//52 131//52
f 129//52 131//52 132//52
f 132//52 131//52 133//52
f 133//52 131//52 134//52
f 133//52 134//52 135//52
f 135//52 136//52 133//52
f 133//52 136//52 137//52
f 133//52 137//52 138//52
f 138//52 139//52 133//52
f 133//52 139//52 140//52
f 133//52 140//52 141//52
f 141//52 142//52 133//52
f 133//52 142//52 143//52
f 133//52 143//52 144//52
f 145//14 146//14 147//14
f 147//14 146//14 148//14
f 147//14 148//14 130//14
f 130//14 148//14 131//14
f 148//53 128//53 5//53
f 149//53 150//53 148//53
f 151//53 152//53 153//53
f 154//53 155//53 4//53
f 4//53 155//53 156//53
f 4//53 156//53 157//53
f 157//53 158//53 4//53
f 4//53 158//53 159//53
f 4//53 159//53 5//53
f 5//53 159//53 160//53
f 5//53 160//53 148//53
f 148//53 160//53 161//53
f 148//53 161//53 149//53
f 4//53 162//53 154//53
f 154//53 162//53 151//53
f 154//53 151//53 163//53
f 163//53 151//53 153//53
f 23//54 129//54 29//54
f 29//54 129//54 151//54
f 29//54 151//54 162//54
f 4//51 34//51 162//51
f 162//51 34//51 81//51
f 162//51 81//51 29//51
f 131//55 148//55 150//55
f 131//55 150//55 134//55
f 134//56 150//56 149//56
f 134//56 149//56 135//56
f 135//57 149//57 161//57
f 135//57 161//57 136//57
f 136//58 161//58 160//58
f 136//58 160//58 137//58
f 137//59 160//59 159//59
f 137//59 159//59 138//59
f 138//60 159//60 158//60
f 138//60 158//60 139//60
f 139//61 158//61 164//61
f 139//62 164//62 165//62
f 151//63 129//63 132//63
f 151//63 132//63 152//63
f 152//64 132//64 133//64
f 152//64 133//64 153//64
f 153//65 133//65 144//65
f 153//65 144//65 163//65
f 163//66 144//66 143//66
f 163//66 143//66 154//66
f 154//67 143//67 142//67
f 154//67 142//67 155//67
f 155//68 142//68 141//68
f 155//68 141//68 156//68
f 156//69 141//69 166//69
f 156//69 166//69 167//69
f 108//63 84//63 89//63
f 108//63 89//63 116//63
f 116//64 89//64 90//64
f 116//64 90//64 117//64
f 117//65 90//65 88//65
f 117//65 88//65 113//65
f 113//66 88//66 87//66
f 113//66 87//66 114//66
f 114//67 87//67 102//67
f 114//67 102//67 115//67
f 115//68 102//68 101//68
f 115//68 101//68 120//68
f 120//69 101//69 96//69
f 120//69 96//69 119//69
f 94//55 104//55 112//55
f 94//55 112//55 97//55
f 97//56 112//56 110//56
f 97//56 110//56 98//56
f 98//57 110//57 109//57
f 98//57 109//57 99//57
f 99//58 109//58 107//58
f 99//58 107//58 93//58
f 93//59 107//59 106//59
f 93//59 106//59 100//59
f 100//60 106//60 118//60
f 100//60 118//60 95//60
f 95//61 118//61 168//61
f 95//62 168//62 169//62
f 22//54 20//54 130//54
f 130//54 20//54 170//54
f 171//52 170//52 19//52
f 19//52 170//52 20//52
f 171//54 19//54 172//54
f 172//54 19//54 15//54
f 172//54 15//54 127//54
f 173//52 172//52 126//52
f 126//52 172//52 127//52
f 174//14 173//14 125//14
f 125//14 173//14 126//14
f 175//52 174//52 123//52
f 123//52 174//52 125//52
f 176//14 175//14 122//14
f 122//14 175//14 123//14
f 147//53 176//53 124//53
f 124//53 176//53 122//53
f 170//1 171//1 130//1
f 130//1 171//1 176//1
f 130//1 176//1 147//1
f 175//1 176//1 174//1
f 174//1 176//1 171//1
f 174//1 171//1 173//1
f 173//1 171//1 172//1
# Vertices: 176, normals: 69, texture coordinates: 0, faces: 316

