# File generated by ImageToStl.com - Free Image and 3D model conversion tools

o obj1
v -0.0135 0.0155 0.017
v 0.011 0.0155 0.017
v -0.0135 0.0155 -0.017
v 0.011 0.0155 -0.017
v -0.0135 0.018 0.017
v -0.0135 0.018 -0.017
v -0.049 0.018 0.017
v -0.049 0.018 -0.017
v -0.049 -0.018 0.017
v -0.049 -0.018 -0.017
v 0.011 -0.018 0.017
v 0.011 -0.018 -0.017
v 0.011 0.01014008 0.00389971
v 0.011 0.01174396 0.00312733
v 0.011 0.01174396 -0.00312733
v 0.011 0.01014008 -0.00389971
v 0.011 0.00835992 -0.00389971
v 0.011 0.01285388 0.00173553
v 0.011 0.01325 0
v 0.011 0.01285388 -0.00173553
v 0.011 0.00525 0
v 0.011 0.00564612 -0.00173553
v 0.011 0.00675604 -0.00312733
v 0.011 0.00564612 0.00173553
v 0.011 0.00675604 0.00312733
v 0.011 0.00835992 0.00389971
v 0.00878445 -0.00423037 0.017
v 0.00714726 -0.00663168 0.017
v 0.004875 -0.00844375 0.017
v 0.00216958 -0.00950555 0.017
v -0.00072862 -0.00972274 0.017
v -0.00356208 -0.00907602 0.017
v -0.00607903 -0.00762286 0.017
v -0.00805583 -0.00549237 0.017
v -0.00931683 -0.00287386 0.017
v 0.004875 0.00844375 0.017
v 0.00714726 0.00663168 0.017
v 0.00878445 0.00423037 0.017
v -0.00975 0 0.017
v -0.00931683 0.00287386 0.017
v -0.00805583 0.00549237 0.017
v -0.00607903 0.00762286 0.017
v 0.0096411 0.00145316 0.017
v 0.00975 0 0.017
v 0.0096411 -0.00145316 0.017
v -0.00356208 0.00907602 0.017
v -0.00072862 0.00972274 0.017
v 0.00216958 0.00950555 0.017
v -0.0045 0 -0.017
v 0.0028057 0.00351824 -0.017
v 0.00100134 0.00438718 -0.017
v -0.00405436 -0.00195248 -0.017
v -0.0028057 -0.00351824 -0.017
v -0.00100134 0.00438718 -0.017
v -0.0028057 0.00351824 -0.017
v -0.00405436 0.00195248 -0.017
v -0.00100134 -0.00438718 -0.017
v 0.00100134 -0.00438718 -0.017
v 0.0028057 -0.00351824 -0.017
v 0.00405436 -0.00195248 -0.017
v 0.0045 0 -0.017
v 0.00405436 0.00195248 -0.017
v 0.0096411 0.00145316 0.023
v 0.00975 0 0.023
v 0.00975 0 0.017
v 0.0096411 -0.00145316 0.023
v 0.00878445 -0.00423037 0.023
v 0.00714726 -0.00663168 0.023
v 0.004875 -0.00844375 0.023
v 0.00216958 -0.00950555 0.023
v -0.00072862 -0.00972274 0.023
v -0.00356208 -0.00907602 0.023
v -0.00607903 -0.00762286 0.023
v -0.00805583 -0.00549237 0.023
v -0.00931683 -0.00287386 0.023
v -0.00975 0 0.023
v -0.00931683 0.00287386 0.023
v -0.00805583 0.00549237 0.023
v -0.00607903 0.00762286 0.023
v -0.00356208 0.00907602 0.023
v -0.00072862 0.00972274 0.023
v 0.00216958 0.00950555 0.023
v 0.004875 0.00844375 0.023
v 0.00714726 0.00663168 0.023
v 0.00878445 0.00423037 0.023
v 0.00975 0 0.023
v 0 0 0.023
v 0.00405436 0.00195248 -0.0335
v 0.0028057 0.00351824 -0.0335
v 0.00100134 0.00438718 -0.0335
v -0.00100134 0.00438718 -0.0335
v -0.0028057 0.00351824 -0.0335
v -0.00405436 0.00195248 -0.0335
v -0.0045 0 -0.0335
v -0.0045 0 -0.017
v -0.00405436 -0.00195248 -0.0335
v -0.0028057 -0.00351824 -0.0335
v -0.00100134 -0.00438718 -0.0335
v 0.00100134 -0.00438718 -0.0335
v 0.0028057 -0.00351824 -0.0335
v 0.00405436 -0.00195248 -0.0335
v 0.0045 0 -0.0335
v 0 0 -0.0335
v 0.0197 0.00564612 0.00173553
v 0.0197 0.00675604 0.00312733
v 0.0197 0.00835992 0.00389971
v 0.0197 0.01014008 0.00389971
v 0.0197 0.01174396 0.00312733
v 0.0197 0.01285388 0.00173553
v 0.0197 0.01325 0
v 0.011 0.01325 0
v 0.0197 0.01285388 -0.00173553
v 0.0197 0.01174396 -0.00312733
v 0.0197 0.01014008 -0.00389971
v 0.0197 0.00835992 -0.00389971
v 0.0197 0.00675604 -0.00312733
v 0.0197 0.00564612 -0.00173553
v 0.0197 0.00525 0
v 0.0197 0.00925 0
vn -0 1 0
vn 1 0 0
vn -1 0 0
vn -0 -1 -0
vn 0 0 1
vn 0 0 -1
vn 0.9972 0.07473 -0
vn 0.9972 -0.07473 0
vn 0.9972 -0.07473 0
vn 0.95557 -0.29476 0
vn 0.82624 -0.56332 0
vn 0.62349 -0.78183 0
vn 0.36534 -0.93087 0
vn 0.07473 -0.9972 0
vn -0.22252 -0.97493 0
vn -0.5 -0.86603 0
vn -0.73305 -0.68017 0
vn -0.90097 -0.43388 0
vn -0.98883 -0.14904 0
vn -0.98883 0.14904 0
vn -0.90097 0.43388 0
vn -0.73305 0.68017 0
vn -0.5 0.86603 0
vn -0.22252 0.97493 0
vn 0.07473 0.9972 -0
vn 0.36534 0.93087 -0
vn 0.62349 0.78183 -0
vn 0.82624 0.56332 -0
vn 0.95557 0.29476 -0
vn 0.9972 0.07473 -0
vn 0.97493 0.22252 0
vn 0.78183 0.62349 0
vn 0.43388 0.90097 0
vn -0.43388 0.90097 0
vn -0.78183 0.62349 0
vn -0.97493 0.22252 0
vn -0.97493 -0.22252 -0
vn -0.78183 -0.62349 -0
vn -0.43388 -0.90097 -0
vn 0.43388 -0.90097 0
vn 0.78183 -0.62349 0
vn 0.97493 -0.22252 0
vn 0 -0.97493 0.22252
vn 0 -0.78183 0.62349
vn 0 -0.43388 0.90097
vn -0 0.43388 0.90097
vn -0 0.78183 0.62349
vn -0 0.97493 0.22252
vn 0 0.97493 -0.22252
vn 0 0.78183 -0.62349
vn 0 0.43388 -0.90097
vn 0 -0.43388 -0.90097
vn 0 -0.78183 -0.62349
vn 0 -0.97493 -0.22252
f 1//1 2//1 3//1
f 3//1 2//1 4//1
f 5//2 1//2 6//2
f 6//2 1//2 3//2
f 7//1 5//1 8//1
f 8//1 5//1 6//1
f 9//3 7//3 10//3
f 10//3 7//3 8//3
f 11//4 9//4 12//4
f 12//4 9//4 10//4
f 13//2 14//2 2//2
f 15//2 16//2 4//2
f 4//2 16//2 17//2
f 4//2 17//2 12//2
f 14//2 18//2 2//2
f 2//2 18//2 19//2
f 2//2 19//2 4//2
f 4//2 19//2 20//2
f 4//2 20//2 15//2
f 21//2 11//2 22//2
f 22//2 11//2 12//2
f 22//2 12//2 23//2
f 23//2 12//2 17//2
f 21//2 24//2 11//2
f 11//2 24//2 25//2
f 11//2 25//2 2//2
f 2//2 25//2 26//2
f 2//2 26//2 13//2
f 5//5 7//5 1//5
f 1//5 7//5 9//5
f 27//5 28//5 11//5
f 11//5 28//5 29//5
f 29//5 30//5 11//5
f 11//5 30//5 31//5
f 11//5 31//5 9//5
f 9//5 31//5 32//5
f 32//5 33//5 9//5
f 9//5 33//5 34//5
f 9//5 34//5 35//5
f 36//5 37//5 2//5
f 2//5 37//5 38//5
f 35//5 39//5 9//5
f 9//5 39//5 40//5
f 9//5 40//5 1//5
f 1//5 40//5 41//5
f 1//5 41//5 42//5
f 38//5 43//5 2//5
f 2//5 43//5 44//5
f 2//5 44//5 11//5
f 11//5 44//5 45//5
f 11//5 45//5 27//5
f 42//5 46//5 1//5
f 1//5 46//5 47//5
f 1//5 47//5 2//5
f 2//5 47//5 48//5
f 2//5 48//5 36//5
f 8//6 6//6 3//6
f 10//6 8//6 49//6
f 4//6 50//6 3//6
f 3//6 50//6 51//6
f 49//6 52//6 10//6
f 10//6 52//6 53//6
f 10//6 53//6 12//6
f 51//6 54//6 3//6
f 3//6 54//6 55//6
f 3//6 55//6 8//6
f 8//6 55//6 56//6
f 8//6 56//6 49//6
f 53//6 57//6 12//6
f 12//6 57//6 58//6
f 12//6 58//6 59//6
f 59//6 60//6 12//6
f 12//6 60//6 61//6
f 12//6 61//6 4//6
f 4//6 61//6 62//6
f 4//6 62//6 50//6
f 63//7 64//7 65//7
f 65//8 64//8 45//8
f 64//9 66//9 45//9
f 45//10 66//10 67//10
f 45//10 67//10 27//10
f 27//11 67//11 68//11
f 27//11 68//11 28//11
f 28//12 68//12 69//12
f 28//12 69//12 29//12
f 29//13 69//13 70//13
f 29//13 70//13 30//13
f 30//14 70//14 71//14
f 30//14 71//14 31//14
f 31//15 71//15 72//15
f 31//15 72//15 32//15
f 32//16 72//16 73//16
f 32//16 73//16 33//16
f 33//17 73//17 74//17
f 33//17 74//17 34//17
f 34//18 74//18 75//18
f 34//18 75//18 35//18
f 35//19 75//19 76//19
f 35//19 76//19 39//19
f 39//20 76//20 77//20
f 39//20 77//20 40//20
f 40//21 77//21 78//21
f 40//21 78//21 41//21
f 41//22 78//22 79//22
f 41//22 79//22 42//22
f 42//23 79//23 80//23
f 42//23 80//23 46//23
f 46//24 80//24 81//24
f 46//24 81//24 47//24
f 47//25 81//25 82//25
f 47//25 82//25 48//25
f 48//26 82//26 83//26
f 48//26 83//26 36//26
f 36//27 83//27 84//27
f 36//27 84//27 37//27
f 37//28 84//28 85//28
f 37//28 85//28 38//28
f 38//29 85//29 63//29
f 38//29 63//29 43//29
f 43//30 63//30 65//30
f 86//5 63//5 87//5
f 68//5 67//5 87//5
f 87//5 67//5 66//5
f 87//5 66//5 86//5
f 71//5 70//5 87//5
f 87//5 70//5 69//5
f 87//5 69//5 68//5
f 74//5 73//5 87//5
f 87//5 73//5 72//5
f 87//5 72//5 71//5
f 77//5 76//5 87//5
f 87//5 76//5 75//5
f 87//5 75//5 74//5
f 80//5 79//5 87//5
f 87//5 79//5 78//5
f 87//5 78//5 77//5
f 83//5 82//5 87//5
f 87//5 82//5 81//5
f 87//5 81//5 80//5
f 63//5 85//5 87//5
f 87//5 85//5 84//5
f 87//5 84//5 83//5
f 61//31 88//31 62//31
f 62//32 88//32 89//32
f 62//32 89//32 50//32
f 50//33 89//33 90//33
f 50//33 90//33 51//33
f 51//1 90//1 91//1
f 51//1 91//1 54//1
f 54//34 91//34 92//34
f 54//34 92//34 55//34
f 55//35 92//35 93//35
f 55//35 93//35 56//35
f 56//36 93//36 94//36
f 56//36 94//36 95//36
f 95//37 94//37 96//37
f 95//37 96//37 52//37
f 52//38 96//38 97//38
f 52//38 97//38 53//38
f 53//39 97//39 98//39
f 53//39 98//39 57//39
f 57//4 98//4 99//4
f 57//4 99//4 58//4
f 58//40 99//40 100//40
f 58//40 100//40 59//40
f 59//41 100//41 101//41
f 59//41 101//41 60//41
f 60//42 101//42 102//42
f 60//42 102//42 61//42
f 61//31 102//31 88//31
f 94//6 93//6 103//6
f 94//6 103//6 96//6
f 99//6 98//6 103//6
f 103//6 98//6 97//6
f 103//6 97//6 96//6
f 102//6 101//6 103//6
f 103//6 101//6 100//6
f 103//6 100//6 99//6
f 90//6 89//6 103//6
f 103//6 89//6 88//6
f 103//6 88//6 102//6
f 93//6 92//6 103//6
f 103//6 92//6 91//6
f 103//6 91//6 90//6
f 21//43 104//43 24//43
f 24//44 104//44 105//44
f 24//44 105//44 25//44
f 25//45 105//45 106//45
f 25//45 106//45 26//45
f 26//5 106//5 107//5
f 26//5 107//5 13//5
f 13//46 107//46 108//46
f 13//46 108//46 14//46
f 14//47 108//47 109//47
f 14//47 109//47 18//47
f 18//48 109//48 110//48
f 18//48 110//48 111//48
f 111//49 110//49 112//49
f 111//49 112//49 20//49
f 20//50 112//50 113//50
f 20//50 113//50 15//50
f 15//51 113//51 114//51
f 15//51 114//51 16//51
f 16//6 114//6 115//6
f 16//6 115//6 17//6
f 17//52 115//52 116//52
f 17//52 116//52 23//52
f 23//53 116//53 117//53
f 23//53 117//53 22//53
f 22//54 117//54 118//54
f 22//54 118//54 21//54
f 21//43 118//43 104//43
f 110//2 109//2 119//2
f 110//2 119//2 112//2
f 115//2 114//2 119//2
f 119//2 114//2 113//2
f 119//2 113//2 112//2
f 118//2 117//2 119//2
f 119//2 117//2 116//2
f 119//2 116//2 115//2
f 106//2 105//2 119//2
f 119//2 105//2 104//2
f 119//2 104//2 118//2
f 109//2 108//2 119//2
f 119//2 108//2 107//2
f 119//2 107//2 106//2
# Vertices: 119, normals: 54, texture coordinates: 0, faces: 226

